<?xml version="1.0" standalone="no"?>
<!DOCTYPE svg PUBLIC "-//W3C//DTD SVG 20010904//EN"
 "http://www.w3.org/TR/2001/REC-SVG-20010904/DTD/svg10.dtd">
<svg version="1.0" xmlns="http://www.w3.org/2000/svg"
 width="700.000000pt" height="700.000000pt" viewBox="0 0 700.000000 700.000000"
 preserveAspectRatio="xMidYMid meet">
<metadata>
Created by potrace 1.11, written by Peter Selinger 2001-2013
</metadata>
<g transform="translate(0.000000,700.000000) scale(0.100000,-0.100000)"
fill="#277de8" stroke="none">
<path d="M3070 6989 c-19 -5 -44 -10 -56 -13 -59 -12 -190 -52 -282 -87 -438
-164 -823 -471 -1069 -854 -125 -196 -250 -514 -278 -711 -3 -21 -10 -61 -16
-88 -30 -153 -33 -585 -4 -746 2 -14 11 -67 20 -118 9 -51 20 -104 25 -117 5
-14 8 -25 6 -25 -3 0 9 -48 25 -107 17 -60 37 -133 45 -163 40 -154 177 -484
325 -785 101 -205 131 -262 261 -495 102 -183 114 -204 161 -285 22 -38 46
-79 52 -90 43 -80 108 -185 120 -195 11 -9 18 -10 29 -1 11 10 9 25 -16 94
-16 45 -36 96 -43 112 -51 120 -240 667 -298 865 -25 84 -65 231 -72 260 -2 8
-11 47 -20 85 -9 39 -18 77 -20 85 -6 27 -33 164 -41 205 -4 22 -9 47 -10 55
-2 8 -5 33 -9 55 -3 22 -7 49 -9 60 -5 25 -18 139 -21 185 -2 19 -6 76 -11
125 -13 153 -7 518 10 625 3 14 7 52 11 85 62 606 334 1182 753 1602 138 138
324 284 449 353 23 13 40 27 37 32 -6 9 -6 9 -54 -3z"/>
<path d="M3630 6990 c-19 -5 -48 -11 -65 -13 -62 -10 -208 -71 -290 -121 -426
-258 -750 -774 -934 -1486 -37 -142 -83 -379 -96 -489 -3 -25 -7 -62 -10 -81
-3 -19 -7 -66 -10 -105 -3 -38 -8 -92 -11 -120 -5 -59 -5 -494 0 -545 2 -19 7
-72 10 -118 23 -278 94 -709 163 -977 8 -33 16 -67 18 -75 2 -8 20 -80 40
-160 20 -80 38 -152 40 -160 6 -26 164 -600 191 -695 99 -346 129 -385 217
-283 41 47 125 152 212 264 17 21 48 61 71 89 36 45 226 292 346 450 226 298
530 750 655 975 11 19 43 77 72 128 110 194 232 464 316 698 40 114 108 338
119 394 2 14 9 45 16 70 6 25 13 59 15 76 2 18 11 65 19 106 8 40 18 100 22
132 3 33 8 69 10 80 26 131 25 665 -1 786 -3 14 -7 44 -10 67 -8 78 -66 297
-107 401 -145 372 -379 611 -678 691 -89 24 -276 36 -340 21z"/>
<path d="M4670 6663 c0 -3 31 -54 69 -112 181 -278 311 -619 367 -961 2 -14 6
-34 9 -45 20 -90 28 -544 12 -672 -46 -369 -170 -766 -355 -1138 -124 -248
-333 -584 -504 -810 -50 -66 -253 -325 -270 -344 -13 -14 -81 -93 -152 -176
-114 -133 -211 -240 -383 -424 -29 -31 -53 -63 -53 -72 0 -33 30 -28 82 14 29
24 100 79 158 122 58 44 107 82 110 85 3 3 25 21 50 40 25 19 54 43 65 52 11
9 108 90 215 179 107 89 213 178 234 198 149 137 205 190 316 301 360 360 591
665 764 1006 31 62 56 116 56 120 0 5 7 23 16 39 42 80 132 382 149 498 3 27
8 56 10 65 28 150 22 428 -15 625 -29 154 -29 154 -65 262 -47 143 -53 156
-127 305 -109 220 -237 399 -418 580 -164 164 -340 301 -340 263z"/>
<path d="M2185 1181 c-60 -37 -63 -45 -70 -191 -3 -74 -8 -173 -10 -220 -22
-454 -24 -572 -13 -595 22 -43 68 -70 153 -86 28 -6 59 -12 70 -14 348 -72
368 -75 515 -75 106 0 150 4 158 12 5 7 74 184 152 393 78 209 149 395 157
414 32 71 5 149 -61 176 -26 11 -120 34 -216 51 -14 3 -146 30 -295 60 -148
31 -281 58 -295 60 -14 3 -56 12 -95 20 -91 18 -114 18 -150 -5z"/>
</g>
</svg>
