<?xml version="1.0" standalone="no"?>
<!DOCTYPE svg PUBLIC "-//W3C//DTD SVG 20010904//EN"
 "http://www.w3.org/TR/2001/REC-SVG-20010904/DTD/svg10.dtd">
<svg version="1.0" xmlns="http://www.w3.org/2000/svg"
 width="983.000000pt" height="983.000000pt" viewBox="0 0 983.000000 983.000000"
 preserveAspectRatio="xMidYMid meet">
<metadata>
Created by potrace 1.11, written by Peter Selinger 2001-2013
</metadata>
<g transform="translate(0.000000,983.000000) scale(0.100000,-0.100000)"
fill="#000000" stroke="none">
<path d="M0 4915 l0 -4915 4915 0 4915 0 0 4915 0 4915 -4915 0 -4915 0 0
-4915z m7245 2848 c199 -49 370 -220 431 -428 23 -81 23 -239 0 -319 -110
-377 -519 -555 -868 -380 -101 51 -212 163 -262 264 -232 476 185 992 699 863z
m-2835 -1673 c347 -31 639 -164 826 -377 156 -176 239 -357 296 -643 20 -100
21 -141 25 -877 l4 -773 490 0 489 0 0 835 0 835 -270 0 -270 0 0 470 0 470
800 0 800 0 0 -1305 0 -1305 245 0 245 0 0 -470 0 -470 -1825 0 -1824 0 -3
1108 -3 1107 -27 80 c-97 286 -348 426 -665 371 -223 -39 -388 -130 -532 -293
l-51 -58 0 -687 0 -688 285 0 285 0 0 -470 0 -470 -1105 0 -1105 0 0 470 0
470 260 0 260 0 0 835 0 835 -255 0 -255 0 0 470 0 470 810 0 810 0 0 -150 c0
-82 2 -150 4 -150 2 0 48 30 103 66 239 161 538 270 808 293 145 12 216 12
345 1z"/>
</g>
</svg>
